<svg xmlns="http://www.w3.org/2000/svg" xmlns:xlink="http://www.w3.org/1999/xlink" width="2400" height="1600" version="1.1">
<style type="text/css">
.l0{
  fill: #ffffff;
  stroke: #ffffff;
  stroke-linecap:round;
  stroke-linejoin:round;
  stroke-width: 1.9003;
}
.l1{
  fill: #0099cc;
  stroke: #0099cc;
  stroke-linecap:round;
  stroke-linejoin:round;
  stroke-width: 1.9003;
}
.l2{
  fill: #aaaaaa; fill-opacity: 0.2;
  stroke: #aaaaaa;
  stroke-linecap:round;
  stroke-linejoin:round;
  stroke-width: 1.9003;
}
.l3{
  fill: #222222; fill-opacity: 0.5;
  stroke: #222222;
  stroke-linecap:round;
  stroke-linejoin:round;
  stroke-width: 1.9003;
}
.l4{
  fill: #229900;
  stroke: #229900;
  stroke-linecap:round;
  stroke-linejoin:round;
  stroke-width: 1.9003;
}
.l5{
  fill: #bb2200;
  stroke: #bb2200;
  stroke-linecap:round;
  stroke-linejoin:round;
  stroke-width: 1.9003;
}
.l6{
  fill: #0066cc; fill-opacity: 0.5;
  stroke: #0066cc;
  stroke-linecap:round;
  stroke-linejoin:round;
  stroke-width: 1.9003;
}
.l7{
  fill: #ff0000; fill-opacity: 0.5;
  stroke: #ff0000;
  stroke-linecap:round;
  stroke-linejoin:round;
  stroke-width: 1.9003;
}
.l8{
  fill: #888800; fill-opacity: 0.5;
  stroke: #888800;
  stroke-linecap:round;
  stroke-linejoin:round;
  stroke-width: 1.9003;
}
.l9{
  fill: #00aaaa; fill-opacity: 0.5;
  stroke: #00aaaa;
  stroke-linecap:round;
  stroke-linejoin:round;
  stroke-width: 1.9003;
}
.l10{
  fill: #880088;
  stroke: #880088;
  stroke-linecap:round;
  stroke-linejoin:round;
  stroke-width: 1.9003;
}
.l11{
  fill: #00ff00; fill-opacity: 0.5;
  stroke: #00ff00;
  stroke-linecap:round;
  stroke-linejoin:round;
  stroke-width: 1.9003;
}
.l12{
  fill: #0000cc; fill-opacity: 0.5;
  stroke: #0000cc;
  stroke-linecap:round;
  stroke-linejoin:round;
  stroke-width: 1.9003;
}
.l13{
  fill: #666600; fill-opacity: 0.5;
  stroke: #666600;
  stroke-linecap:round;
  stroke-linejoin:round;
  stroke-width: 1.9003;
}
.l14{
  fill: #557755; fill-opacity: 0.2;
  stroke: #557755;
  stroke-linecap:round;
  stroke-linejoin:round;
  stroke-width: 1.9003;
}
.l15{
  fill: #aa2222; fill-opacity: 0.5;
  stroke: #aa2222;
  stroke-linecap:round;
  stroke-linejoin:round;
  stroke-width: 1.9003;
}
.l16{
  fill: #7ccc40; fill-opacity: 0.5;
  stroke: #7ccc40;
  stroke-linecap:round;
  stroke-linejoin:round;
  stroke-width: 1.9003;
}
.l17{
  fill: #00ffcc; fill-opacity: 0.2;
  stroke: #00ffcc;
  stroke-linecap:round;
  stroke-linejoin:round;
  stroke-width: 1.9003;
}
.l18{
  fill: #ce0097; fill-opacity: 0.5;
  stroke: #ce0097;
  stroke-linecap:round;
  stroke-linejoin:round;
  stroke-width: 1.9003;
}
.l19{
  fill: #d2d46b; fill-opacity: 0.2;
  stroke: #d2d46b;
  stroke-linecap:round;
  stroke-linejoin:round;
  stroke-width: 1.9003;
}
.l20{
  fill: #ef6158; fill-opacity: 0.2;
  stroke: #ef6158;
  stroke-linecap:round;
  stroke-linejoin:round;
  stroke-width: 1.9003;
}
.l21{
  fill: #fdb200; fill-opacity: 0.2;
  stroke: #fdb200;
  stroke-linecap:round;
  stroke-linejoin:round;
  stroke-width: 1.9003;
}
text {font-family: Sans-Serif;}
</style>
<rect class="l0" x="0" y="0" width="2400" height="1600"/>
<path class="l4" style="fill:none;" d="M108.977 458.012L2364 458.012L2364 671.972L108.977 671.972L108.977 458.012z"/>
<path class="l4" d="M260.297 764.171L260.297 827.515"/>
<path class="l4" d="M277.892 753.614L277.892 771.21"/>
<path class="l4" d="M277.892 820.477L277.892 838.072"/>
<path class="l4" d="M253.259 774.729L253.259 816.958"/>
<path class="l4" d="M260.297 820.477L277.892 820.477"/>
<path class="l4" d="M260.297 771.21L277.892 771.21"/>
<path class="l4" d="M221.587 795.843L252.555 795.843"/>
<path class="l4" d="M267.335 767.69L260.297 771.21L267.335 774.729L267.335 767.69"/>
<path class="l4" d="M260.297 975.316L260.297 1038.66"/>
<path class="l4" d="M277.892 964.759L277.892 982.354"/>
<path class="l4" d="M277.892 1031.62L277.892 1049.22"/>
<path class="l4" d="M253.259 985.873L253.259 1028.1"/>
<path class="l4" d="M260.297 1031.62L277.892 1031.62"/>
<path class="l4" d="M260.297 982.354L277.892 982.354"/>
<path class="l4" d="M221.587 1006.99L252.555 1006.99"/>
<path class="l4" d="M270.854 1035.14L277.892 1031.62L270.854 1028.1L270.854 1035.14"/>
<path class="l5" d="M270.854 792.324L277.892 795.843L270.854 799.362L270.854 792.324"/>
<path class="l5" d="M274.373 834.553L281.412 834.553L281.412 841.591L274.373 841.591L274.373 834.553z"/>
<path class="l5" d="M218.068 792.324L225.106 792.324L225.106 799.362L218.068 799.362L218.068 792.324z"/>
<path class="l5" d="M274.373 750.095L281.412 750.095L281.412 757.133L274.373 757.133L274.373 750.095z"/>
<path class="l5" d="M277.783 795.733L278.002 795.733L278.002 795.953L277.783 795.953L277.783 795.733z"/>
<path class="l5" d="M277.892 1010.51L270.854 1006.99L277.892 1003.47L277.892 1010.51"/>
<path class="l5" d="M274.373 961.24L281.412 961.24L281.412 968.278L274.373 968.278L274.373 961.24z"/>
<path class="l5" d="M218.068 1003.47L225.106 1003.47L225.106 1010.51L218.068 1010.51L218.068 1003.47z"/>
<path class="l5" d="M274.373 1045.7L281.412 1045.7L281.412 1052.74L274.373 1052.74L274.373 1045.7z"/>
<path class="l5" d="M277.783 1006.88L278.002 1006.88L278.002 1007.1L277.783 1007.1L277.783 1006.88z"/>
<path class="l5" d="M73.7861 901.415L80.8243 901.415"/>
<path class="l5" d="M73.7861 901.415L68.5075 894.377L56.1908 894.377L61.4694 901.415L56.1908 908.453L68.5075 908.453L73.7861 901.415"/>
<path class="l5" d="M79.0647 899.656L82.5838 899.656L82.5838 903.175L79.0647 903.175L79.0647 899.656z"/>
<path class="l5" d="M474.961 901.415L487.277 901.415"/>
<path class="l5" d="M499.594 901.415L494.316 894.377L481.999 894.377L487.277 901.415L481.999 908.453L494.316 908.453L499.594 901.415"/>
<path class="l5" d="M473.201 899.656L476.72 899.656L476.72 903.175L473.201 903.175L473.201 899.656z"/>
<path class="l5" d="M104.578 683.233L108.977 683.233"/>
<path class="l5" d="M89.622 690.271L84.3434 683.233L89.622 676.195L99.2994 676.195L104.578 683.233L99.2994 690.271L89.622 690.271"/>
<path class="l5" d="M107.217 681.473L110.736 681.473L110.736 684.992L107.217 684.992L107.217 681.473z"/>
<path class="l5" d="M104.578 1119.6L108.977 1119.6"/>
<path class="l5" d="M89.622 1126.64L84.3434 1119.6L89.622 1112.56L99.2994 1112.56L104.578 1119.6L99.2994 1126.64L89.622 1126.64"/>
<path class="l5" d="M107.217 1117.84L110.736 1117.84L110.736 1121.36L107.217 1121.36L107.217 1117.84z"/>
<text fill="#222222"  xml:space="preserve" font-size="14.6394" transform="translate(234.778, 766.907)" >MP</text>
<text fill="#ff0000"  xml:space="preserve" font-size="10.9795" transform="translate(226.664, 791.736)" >G</text>
<text fill="#222222"  xml:space="preserve" font-size="14.6394" transform="translate(291.969, 836.333)" >sg13_lv_pmos</text>
<text fill="#666600"  xml:space="preserve" font-size="14.6394" transform="translate(293.728, 817.933)" >m=1</text>
<text fill="#666600"  xml:space="preserve" font-size="14.6394" transform="translate(293.728, 805.617)" >ng=1</text>
<text fill="#666600"  xml:space="preserve" font-size="14.6394" transform="translate(293.728, 788.021)" >l=0.13u</text>
<text fill="#666600"  xml:space="preserve" font-size="14.6394" transform="translate(293.728, 772.185)" >w=1u</text>
<text fill="#ff0000"  xml:space="preserve" font-size="10.9795" transform="translate(281.412, 830.446)" >D</text>
<text fill="#ff0000"  xml:space="preserve" font-size="10.9795" transform="translate(281.412, 768.585)" >S</text>
<text fill="#ff0000"  xml:space="preserve" font-size="10.9795" transform="translate(277.892, 791.736)" >B</text>
<text fill="#222222"  xml:space="preserve" font-size="14.6394" transform="translate(232.778, 978.051)" >MN</text>
<text fill="#ff0000"  xml:space="preserve" font-size="10.9795" transform="translate(226.664, 1002.88)" >G</text>
<text fill="#222222"  xml:space="preserve" font-size="14.6394" transform="translate(291.969, 1047.48)" >sg13_lv_nmos</text>
<text fill="#666600"  xml:space="preserve" font-size="14.6394" transform="translate(293.728, 1029.08)" >m=1</text>
<text fill="#666600"  xml:space="preserve" font-size="14.6394" transform="translate(293.728, 1016.76)" >ng=1</text>
<text fill="#666600"  xml:space="preserve" font-size="14.6394" transform="translate(293.728, 999.166)" >l=0.13u</text>
<text fill="#666600"  xml:space="preserve" font-size="14.6394" transform="translate(293.728, 983.33)" >w=0.5u</text>
<text fill="#ff0000"  xml:space="preserve" font-size="10.9795" transform="translate(281.412, 1041.59)" >S</text>
<text fill="#ff0000"  xml:space="preserve" font-size="10.9795" transform="translate(281.412, 979.73)" >D</text>
<text fill="#ff0000"  xml:space="preserve" font-size="10.9795" transform="translate(277.892, 1002.88)" >B</text>
<text fill="#0099cc"  xml:space="preserve" font-size="24.1549" transform="translate(39.4312, 911.031)" >a</text>
<text fill="#0099cc"  xml:space="preserve" font-size="24.1549" transform="translate(503.113, 911.031)" >y</text>
<text fill="#0099cc"  xml:space="preserve" font-size="24.1549" transform="translate(37.0442, 691.969)" >vdd</text>
<text fill="#0099cc"  xml:space="preserve" font-size="24.1549" transform="translate(41.0442, 1128.33)" >vss</text>
<path class="l1" d="M277.892 1006.99L277.892 1119.6"/>
<path class="l1" d="M221.587 901.415L221.587 1006.99"/>
<path class="l1" d="M277.892 901.415L277.892 964.759"/>
<path class="l1" d="M80.8243 901.415L221.587 901.415"/>
<path class="l1" d="M277.892 901.415L474.961 901.415"/>
<path class="l1" d="M108.977 683.233L277.892 683.233"/>
<path class="l1" d="M277.892 683.233L277.892 795.843"/>
<path class="l1" d="M108.977 1119.6L277.892 1119.6"/>
<path class="l1" d="M221.587 795.843L221.587 901.415"/>
<path class="l1" d="M277.892 838.072L277.892 901.415"/>
<circle class="l1" cx="277.892" cy="901.415" r="5.20823"/>
<circle class="l1" cx="221.587" cy="901.415" r="5.20823"/>
<circle class="l1" cx="277.892" cy="901.415" r="5.20823"/>
<circle class="l1" cx="221.587" cy="901.415" r="5.20823"/>
<circle class="l1" cx="277.892" cy="901.415" r="5.20823"/>
<circle class="l1" cx="221.587" cy="901.415" r="5.20823"/>
<text fill="#222222"  xml:space="preserve" font-size="40.2582" transform="translate(125.868, 508.643)" >g1_osc_inv - 1.2 V inverter</text>
<text fill="#222222"  xml:space="preserve" font-size="21.959" transform="translate(125.868, 546.925)" >G1 guardian, chip of record g1_chip_top_1414_r2.gds 9049e87b (r2 2026-09-25; geometry XOR-identical to r1 629d303a); block map: g1_padring/reports/signoff-1414-20260924</text>
<text fill="#222222"  xml:space="preserve" font-size="21.959" transform="translate(125.868, 580.708)" >On-chip variant: R0.95 (this sheet): RA/RB rppd 1u/111.15u = chip CDL g1_osc RRA/RRB (canonical CDL 126acd51 lineage); sub-cells = layout/g1_osc_lvs.cdl 8a8fa94a</text>
<text fill="#222222"  xml:space="preserve" font-size="21.959" transform="translate(125.868, 614.491)" >Netlist-equivalent to the g1_osc_inv subcircuit in sim/netlist/g1_osc.spice sha256 43a16205 except XRA/XRB l=111.15u (R0.95); sub-cells identical</text>
<text fill="#222222"  xml:space="preserve" font-size="18.2992" transform="translate(125.868, 644.951)" >Drawn 2026-09-25 by the block generator; device sizes (w, l, ng, m) are on each symbol. Proof: review/schematics-readability-20260925</text>
</svg>
