<svg xmlns="http://www.w3.org/2000/svg" xmlns:xlink="http://www.w3.org/1999/xlink" width="2400" height="1600" version="1.1">
<style type="text/css">
.l0{
  fill: #ffffff;
  stroke: #ffffff;
  stroke-linecap:round;
  stroke-linejoin:round;
  stroke-width: 1.45174;
}
.l1{
  fill: #0099cc;
  stroke: #0099cc;
  stroke-linecap:round;
  stroke-linejoin:round;
  stroke-width: 1.45174;
}
.l2{
  fill: #aaaaaa; fill-opacity: 0.2;
  stroke: #aaaaaa;
  stroke-linecap:round;
  stroke-linejoin:round;
  stroke-width: 1.45174;
}
.l3{
  fill: #222222; fill-opacity: 0.5;
  stroke: #222222;
  stroke-linecap:round;
  stroke-linejoin:round;
  stroke-width: 1.45174;
}
.l4{
  fill: #229900;
  stroke: #229900;
  stroke-linecap:round;
  stroke-linejoin:round;
  stroke-width: 1.45174;
}
.l5{
  fill: #bb2200;
  stroke: #bb2200;
  stroke-linecap:round;
  stroke-linejoin:round;
  stroke-width: 1.45174;
}
.l6{
  fill: #0066cc; fill-opacity: 0.5;
  stroke: #0066cc;
  stroke-linecap:round;
  stroke-linejoin:round;
  stroke-width: 1.45174;
}
.l7{
  fill: #ff0000; fill-opacity: 0.5;
  stroke: #ff0000;
  stroke-linecap:round;
  stroke-linejoin:round;
  stroke-width: 1.45174;
}
.l8{
  fill: #888800; fill-opacity: 0.5;
  stroke: #888800;
  stroke-linecap:round;
  stroke-linejoin:round;
  stroke-width: 1.45174;
}
.l9{
  fill: #00aaaa; fill-opacity: 0.5;
  stroke: #00aaaa;
  stroke-linecap:round;
  stroke-linejoin:round;
  stroke-width: 1.45174;
}
.l10{
  fill: #880088;
  stroke: #880088;
  stroke-linecap:round;
  stroke-linejoin:round;
  stroke-width: 1.45174;
}
.l11{
  fill: #00ff00; fill-opacity: 0.5;
  stroke: #00ff00;
  stroke-linecap:round;
  stroke-linejoin:round;
  stroke-width: 1.45174;
}
.l12{
  fill: #0000cc; fill-opacity: 0.5;
  stroke: #0000cc;
  stroke-linecap:round;
  stroke-linejoin:round;
  stroke-width: 1.45174;
}
.l13{
  fill: #666600; fill-opacity: 0.5;
  stroke: #666600;
  stroke-linecap:round;
  stroke-linejoin:round;
  stroke-width: 1.45174;
}
.l14{
  fill: #557755; fill-opacity: 0.2;
  stroke: #557755;
  stroke-linecap:round;
  stroke-linejoin:round;
  stroke-width: 1.45174;
}
.l15{
  fill: #aa2222; fill-opacity: 0.5;
  stroke: #aa2222;
  stroke-linecap:round;
  stroke-linejoin:round;
  stroke-width: 1.45174;
}
.l16{
  fill: #7ccc40; fill-opacity: 0.5;
  stroke: #7ccc40;
  stroke-linecap:round;
  stroke-linejoin:round;
  stroke-width: 1.45174;
}
.l17{
  fill: #00ffcc; fill-opacity: 0.2;
  stroke: #00ffcc;
  stroke-linecap:round;
  stroke-linejoin:round;
  stroke-width: 1.45174;
}
.l18{
  fill: #ce0097; fill-opacity: 0.5;
  stroke: #ce0097;
  stroke-linecap:round;
  stroke-linejoin:round;
  stroke-width: 1.45174;
}
.l19{
  fill: #d2d46b; fill-opacity: 0.2;
  stroke: #d2d46b;
  stroke-linecap:round;
  stroke-linejoin:round;
  stroke-width: 1.45174;
}
.l20{
  fill: #ef6158; fill-opacity: 0.2;
  stroke: #ef6158;
  stroke-linecap:round;
  stroke-linejoin:round;
  stroke-width: 1.45174;
}
.l21{
  fill: #fdb200; fill-opacity: 0.2;
  stroke: #fdb200;
  stroke-linecap:round;
  stroke-linejoin:round;
  stroke-width: 1.45174;
}
text {font-family: Sans-Serif;}
</style>
<rect class="l0" x="0" y="0" width="2400" height="1600"/>
<path class="l4" style="fill:none;" d="M91.7511 527.983L2364 527.983L2364 691.438L91.7511 691.438L91.7511 527.983z"/>
<path class="l4" d="M207.353 783.382L207.353 831.774"/>
<path class="l4" d="M220.795 775.317L220.795 788.759"/>
<path class="l4" d="M220.795 826.397L220.795 839.839"/>
<path class="l4" d="M201.976 791.447L201.976 823.708"/>
<path class="l4" d="M207.353 826.397L220.795 826.397"/>
<path class="l4" d="M207.353 788.759L220.795 788.759"/>
<path class="l4" d="M177.78 807.578L201.438 807.578"/>
<path class="l4" d="M212.73 786.071L207.353 788.759L212.73 791.447L212.73 786.071"/>
<path class="l4" d="M207.353 944.687L207.353 993.079"/>
<path class="l4" d="M220.795 936.622L220.795 950.064"/>
<path class="l4" d="M220.795 987.702L220.795 1001.14"/>
<path class="l4" d="M201.976 952.752L201.976 985.013"/>
<path class="l4" d="M207.353 987.702L220.795 987.702"/>
<path class="l4" d="M207.353 950.064L220.795 950.064"/>
<path class="l4" d="M177.78 968.883L201.438 968.883"/>
<path class="l4" d="M215.418 990.39L220.795 987.702L215.418 985.013L215.418 990.39"/>
<path class="l5" d="M215.418 804.89L220.795 807.578L215.418 810.266L215.418 804.89"/>
<path class="l5" d="M218.107 837.151L223.483 837.151L223.483 842.527L218.107 842.527L218.107 837.151z"/>
<path class="l5" d="M175.092 804.89L180.469 804.89L180.469 810.266L175.092 810.266L175.092 804.89z"/>
<path class="l5" d="M218.107 772.629L223.483 772.629L223.483 778.005L218.107 778.005L218.107 772.629z"/>
<path class="l5" d="M220.711 807.494L220.879 807.494L220.879 807.662L220.711 807.662L220.711 807.494z"/>
<path class="l5" d="M220.795 971.571L215.418 968.883L220.795 966.194L220.795 971.571"/>
<path class="l5" d="M218.107 933.934L223.483 933.934L223.483 939.31L218.107 939.31L218.107 933.934z"/>
<path class="l5" d="M175.092 966.194L180.469 966.194L180.469 971.571L175.092 971.571L175.092 966.194z"/>
<path class="l5" d="M218.107 998.455L223.483 998.455L223.483 1003.83L218.107 1003.83L218.107 998.455z"/>
<path class="l5" d="M220.711 968.799L220.879 968.799L220.879 968.967L220.711 968.967L220.711 968.799z"/>
<path class="l5" d="M64.8669 888.23L70.2437 888.23"/>
<path class="l5" d="M64.8669 888.23L60.8343 882.854L51.4248 882.854L55.4575 888.23L51.4248 893.607L60.8343 893.607L64.8669 888.23"/>
<path class="l5" d="M68.8995 886.886L71.588 886.886L71.588 889.575L68.8995 889.575L68.8995 886.886z"/>
<path class="l5" d="M371.346 888.23L380.756 888.23"/>
<path class="l5" d="M390.165 888.23L386.133 882.854L376.723 882.854L380.756 888.23L376.723 893.607L386.133 893.607L390.165 888.23"/>
<path class="l5" d="M370.002 886.886L372.691 886.886L372.691 889.575L370.002 889.575L370.002 886.886z"/>
<path class="l5" d="M88.3906 721.549L91.7511 721.549"/>
<path class="l5" d="M76.9648 726.926L72.9322 721.549L76.9648 716.172L84.3579 716.172L88.3906 721.549L84.3579 726.926L76.9648 726.926"/>
<path class="l5" d="M90.4069 720.204L93.0953 720.204L93.0953 722.893L90.4069 722.893L90.4069 720.204z"/>
<path class="l5" d="M88.3906 1054.91L91.7511 1054.91"/>
<path class="l5" d="M76.9648 1060.29L72.9322 1054.91L76.9648 1049.54L84.3579 1049.54L88.3906 1054.91L84.3579 1060.29L76.9648 1060.29"/>
<path class="l5" d="M90.4069 1053.57L93.0953 1053.57L93.0953 1056.26L90.4069 1056.26L90.4069 1053.57z"/>
<text fill="#222222"  xml:space="preserve" font-size="11.1838" transform="translate(187.665, 785.472)" >MP</text>
<text fill="#ff0000"  xml:space="preserve" font-size="8.38786" transform="translate(181.534, 804.44)" >G</text>
<text fill="#222222"  xml:space="preserve" font-size="11.1838" transform="translate(231.549, 838.51)" >sg13_lv_pmos</text>
<text fill="#666600"  xml:space="preserve" font-size="11.1838" transform="translate(232.893, 824.454)" >m=1</text>
<text fill="#666600"  xml:space="preserve" font-size="11.1838" transform="translate(232.893, 815.044)" >ng=1</text>
<text fill="#666600"  xml:space="preserve" font-size="11.1838" transform="translate(232.893, 801.602)" >l=0.13u</text>
<text fill="#666600"  xml:space="preserve" font-size="11.1838" transform="translate(232.893, 789.505)" >w=1u</text>
<text fill="#ff0000"  xml:space="preserve" font-size="8.38786" transform="translate(223.483, 834.013)" >D</text>
<text fill="#ff0000"  xml:space="preserve" font-size="8.38786" transform="translate(223.483, 786.754)" >S</text>
<text fill="#ff0000"  xml:space="preserve" font-size="8.38786" transform="translate(220.795, 804.44)" >B</text>
<text fill="#222222"  xml:space="preserve" font-size="11.1838" transform="translate(186.665, 946.777)" >MN</text>
<text fill="#ff0000"  xml:space="preserve" font-size="8.38786" transform="translate(181.534, 965.745)" >G</text>
<text fill="#222222"  xml:space="preserve" font-size="11.1838" transform="translate(231.549, 999.815)" >sg13_lv_nmos</text>
<text fill="#666600"  xml:space="preserve" font-size="11.1838" transform="translate(232.893, 985.759)" >m=1</text>
<text fill="#666600"  xml:space="preserve" font-size="11.1838" transform="translate(232.893, 976.349)" >ng=1</text>
<text fill="#666600"  xml:space="preserve" font-size="11.1838" transform="translate(232.893, 962.907)" >l=0.13u</text>
<text fill="#666600"  xml:space="preserve" font-size="11.1838" transform="translate(232.893, 950.809)" >w=0.5u</text>
<text fill="#ff0000"  xml:space="preserve" font-size="8.38786" transform="translate(223.483, 995.318)" >S</text>
<text fill="#ff0000"  xml:space="preserve" font-size="8.38786" transform="translate(223.483, 948.059)" >D</text>
<text fill="#ff0000"  xml:space="preserve" font-size="8.38786" transform="translate(220.795, 965.745)" >B</text>
<text fill="#0099cc"  xml:space="preserve" font-size="18.4533" transform="translate(39.0806, 895.577)" >a</text>
<text fill="#0099cc"  xml:space="preserve" font-size="18.4533" transform="translate(392.854, 895.577)" >y</text>
<text fill="#0099cc"  xml:space="preserve" font-size="18.4533" transform="translate(35.4117, 728.223)" >vdd</text>
<text fill="#0099cc"  xml:space="preserve" font-size="18.4533" transform="translate(39.4117, 1061.59)" >vss</text>
<path class="l1" d="M220.795 968.883L220.795 1054.91"/>
<path class="l1" d="M177.78 888.23L177.78 968.883"/>
<path class="l1" d="M220.795 888.23L220.795 936.622"/>
<path class="l1" d="M70.2437 888.23L177.78 888.23"/>
<path class="l1" d="M220.795 888.23L371.346 888.23"/>
<path class="l1" d="M220.795 721.549L220.795 807.578"/>
<path class="l1" d="M91.7511 721.549L220.795 721.549"/>
<path class="l1" d="M91.7511 1054.91L220.795 1054.91"/>
<path class="l1" d="M177.78 807.578L177.78 888.23"/>
<path class="l1" d="M220.795 839.839L220.795 888.23"/>
<circle class="l1" cx="220.795" cy="888.23" r="3.97886"/>
<circle class="l1" cx="177.78" cy="888.23" r="3.97886"/>
<circle class="l1" cx="220.795" cy="888.23" r="3.97886"/>
<circle class="l1" cx="177.78" cy="888.23" r="3.97886"/>
<circle class="l1" cx="220.795" cy="888.23" r="3.97886"/>
<circle class="l1" cx="177.78" cy="888.23" r="3.97886"/>
<text fill="#222222"  xml:space="preserve" font-size="30.7555" transform="translate(104.655, 566.662)" >g1_inv - 1.2 V inverter</text>
<text fill="#222222"  xml:space="preserve" font-size="16.7757" transform="translate(104.655, 595.908)" >G1 guardian, chip of record g1_chip_top_1414_r2.gds 9049e87b (r2 2026-09-25; geometry XOR-identical to r1 629d303a); block map: g1_padring/reports/signoff-1414-20260924</text>
<text fill="#222222"  xml:space="preserve" font-size="16.7757" transform="translate(104.655, 621.717)" >On-chip variant: chip of record (regenpair4 + NF4): soft g1_cmp M1/M2 24u/0.68u ng=4, hard g1_cmp_regenpair4 M3/M4 6u/0.26u; rppd bodies on vss as in the chip deck; layout/g1_trip_lvs.cdl 60a9ad6e + regenpair4/NF4 cell CDLs</text>
<text fill="#222222"  xml:space="preserve" font-size="16.7757" transform="translate(104.655, 647.526)" >Netlist-equivalent to the g1_inv subcircuit in sim/qualification/joint586-softinputpair4-nf4-roomcal-s73133-20260924-r1/trip.spice sha256 f5f0a90a (chip deck)</text>
<text fill="#222222"  xml:space="preserve" font-size="13.9798" transform="translate(104.655, 670.796)" >Drawn 2026-09-25 by the block generator; device sizes (w, l, ng, m) are on each symbol. Proof: review/schematics-readability-20260925</text>
</svg>
