<svg xmlns="http://www.w3.org/2000/svg" xmlns:xlink="http://www.w3.org/1999/xlink" width="2400" height="1600" version="1.1">
<style type="text/css">
.l0{
  fill: #ffffff;
  stroke: #ffffff;
  stroke-linecap:round;
  stroke-linejoin:round;
  stroke-width: 1.44441;
}
.l1{
  fill: #0099cc;
  stroke: #0099cc;
  stroke-linecap:round;
  stroke-linejoin:round;
  stroke-width: 1.44441;
}
.l2{
  fill: #aaaaaa; fill-opacity: 0.2;
  stroke: #aaaaaa;
  stroke-linecap:round;
  stroke-linejoin:round;
  stroke-width: 1.44441;
}
.l3{
  fill: #222222; fill-opacity: 0.5;
  stroke: #222222;
  stroke-linecap:round;
  stroke-linejoin:round;
  stroke-width: 1.44441;
}
.l4{
  fill: #229900;
  stroke: #229900;
  stroke-linecap:round;
  stroke-linejoin:round;
  stroke-width: 1.44441;
}
.l5{
  fill: #bb2200;
  stroke: #bb2200;
  stroke-linecap:round;
  stroke-linejoin:round;
  stroke-width: 1.44441;
}
.l6{
  fill: #0066cc; fill-opacity: 0.5;
  stroke: #0066cc;
  stroke-linecap:round;
  stroke-linejoin:round;
  stroke-width: 1.44441;
}
.l7{
  fill: #ff0000; fill-opacity: 0.5;
  stroke: #ff0000;
  stroke-linecap:round;
  stroke-linejoin:round;
  stroke-width: 1.44441;
}
.l8{
  fill: #888800; fill-opacity: 0.5;
  stroke: #888800;
  stroke-linecap:round;
  stroke-linejoin:round;
  stroke-width: 1.44441;
}
.l9{
  fill: #00aaaa; fill-opacity: 0.5;
  stroke: #00aaaa;
  stroke-linecap:round;
  stroke-linejoin:round;
  stroke-width: 1.44441;
}
.l10{
  fill: #880088;
  stroke: #880088;
  stroke-linecap:round;
  stroke-linejoin:round;
  stroke-width: 1.44441;
}
.l11{
  fill: #00ff00; fill-opacity: 0.5;
  stroke: #00ff00;
  stroke-linecap:round;
  stroke-linejoin:round;
  stroke-width: 1.44441;
}
.l12{
  fill: #0000cc; fill-opacity: 0.5;
  stroke: #0000cc;
  stroke-linecap:round;
  stroke-linejoin:round;
  stroke-width: 1.44441;
}
.l13{
  fill: #666600; fill-opacity: 0.5;
  stroke: #666600;
  stroke-linecap:round;
  stroke-linejoin:round;
  stroke-width: 1.44441;
}
.l14{
  fill: #557755; fill-opacity: 0.2;
  stroke: #557755;
  stroke-linecap:round;
  stroke-linejoin:round;
  stroke-width: 1.44441;
}
.l15{
  fill: #aa2222; fill-opacity: 0.5;
  stroke: #aa2222;
  stroke-linecap:round;
  stroke-linejoin:round;
  stroke-width: 1.44441;
}
.l16{
  fill: #7ccc40; fill-opacity: 0.5;
  stroke: #7ccc40;
  stroke-linecap:round;
  stroke-linejoin:round;
  stroke-width: 1.44441;
}
.l17{
  fill: #00ffcc; fill-opacity: 0.2;
  stroke: #00ffcc;
  stroke-linecap:round;
  stroke-linejoin:round;
  stroke-width: 1.44441;
}
.l18{
  fill: #ce0097; fill-opacity: 0.5;
  stroke: #ce0097;
  stroke-linecap:round;
  stroke-linejoin:round;
  stroke-width: 1.44441;
}
.l19{
  fill: #d2d46b; fill-opacity: 0.2;
  stroke: #d2d46b;
  stroke-linecap:round;
  stroke-linejoin:round;
  stroke-width: 1.44441;
}
.l20{
  fill: #ef6158; fill-opacity: 0.2;
  stroke: #ef6158;
  stroke-linecap:round;
  stroke-linejoin:round;
  stroke-width: 1.44441;
}
.l21{
  fill: #fdb200; fill-opacity: 0.2;
  stroke: #fdb200;
  stroke-linecap:round;
  stroke-linejoin:round;
  stroke-width: 1.44441;
}
text {font-family: Sans-Serif;}
</style>
<rect class="l0" x="0" y="0" width="2400" height="1600"/>
<path class="l4" style="fill:none;" d="M103.238 529.358L2364 529.358L2364 691.987L103.238 691.987L103.238 529.358z"/>
<path class="l4" d="M218.256 783.466L218.256 831.613"/>
<path class="l4" d="M231.63 775.442L231.63 788.816"/>
<path class="l4" d="M231.63 826.263L231.63 839.638"/>
<path class="l4" d="M212.906 791.491L212.906 823.589"/>
<path class="l4" d="M218.256 826.263L231.63 826.263"/>
<path class="l4" d="M218.256 788.816L231.63 788.816"/>
<path class="l4" d="M188.833 807.54L212.371 807.54"/>
<path class="l4" d="M223.606 786.141L218.256 788.816L223.606 791.491L223.606 786.141"/>
<path class="l4" d="M211.301 790.421L213.441 790.421L213.441 824.659L211.301 824.659L211.301 790.421z"/>
<path class="l4" d="M218.256 943.956L218.256 992.103"/>
<path class="l4" d="M231.63 935.931L231.63 949.305"/>
<path class="l4" d="M231.63 986.753L231.63 1000.13"/>
<path class="l4" d="M218.256 986.753L231.63 986.753"/>
<path class="l4" d="M218.256 949.305L231.63 949.305"/>
<path class="l4" d="M188.833 968.029L212.371 968.029"/>
<path class="l4" d="M226.28 989.428L231.63 986.753L226.28 984.078L226.28 989.428"/>
<path class="l4" d="M211.301 950.91L213.441 950.91L213.441 985.148L211.301 985.148L211.301 950.91z"/>
<path class="l5" d="M226.28 804.865L231.63 807.54L226.28 810.214L226.28 804.865"/>
<path class="l5" d="M228.955 836.963L234.305 836.963L234.305 842.312L228.955 842.312L228.955 836.963z"/>
<path class="l5" d="M186.158 804.865L191.508 804.865L191.508 810.214L186.158 810.214L186.158 804.865z"/>
<path class="l5" d="M228.955 772.767L234.305 772.767L234.305 778.117L228.955 778.117L228.955 772.767z"/>
<path class="l5" d="M231.546 807.456L231.714 807.456L231.714 807.623L231.546 807.623L231.546 807.456z"/>
<path class="l5" d="M231.63 970.704L226.28 968.029L231.63 965.354L231.63 970.704"/>
<path class="l5" d="M228.955 933.256L234.305 933.256L234.305 938.606L228.955 938.606L228.955 933.256z"/>
<path class="l5" d="M186.158 965.354L191.508 965.354L191.508 970.704L186.158 970.704L186.158 965.354z"/>
<path class="l5" d="M228.955 997.452L234.305 997.452L234.305 1002.8L228.955 1002.8L228.955 997.452z"/>
<path class="l5" d="M231.546 967.946L231.714 967.946L231.714 968.113L231.546 968.113L231.546 967.946z"/>
<path class="l5" d="M76.4902 887.784L81.8399 887.784"/>
<path class="l5" d="M76.4902 887.784L72.478 882.435L63.1161 882.435L67.1283 887.784L63.1161 893.134L72.478 893.134L76.4902 887.784"/>
<path class="l5" d="M80.5024 886.447L83.1773 886.447L83.1773 889.122L80.5024 889.122L80.5024 886.447z"/>
<path class="l5" d="M381.42 887.784L390.782 887.784"/>
<path class="l5" d="M400.144 887.784L396.132 882.435L386.77 882.435L390.782 887.784L386.77 893.134L396.132 893.134L400.144 887.784"/>
<path class="l5" d="M380.083 886.447L382.758 886.447L382.758 889.122L380.083 889.122L380.083 886.447z"/>
<path class="l5" d="M99.8949 721.945L103.238 721.945"/>
<path class="l5" d="M88.5269 727.295L84.5147 721.945L88.5269 716.596L95.8827 716.596L99.8949 721.945L95.8827 727.295L88.5269 727.295"/>
<path class="l5" d="M101.901 720.608L104.576 720.608L104.576 723.283L101.901 723.283L101.901 720.608z"/>
<path class="l5" d="M99.8949 1053.62L103.238 1053.62"/>
<path class="l5" d="M88.5269 1058.97L84.5147 1053.62L88.5269 1048.27L95.8827 1048.27L99.8949 1053.62L95.8827 1058.97L88.5269 1058.97"/>
<path class="l5" d="M101.901 1052.29L104.576 1052.29L104.576 1054.96L101.901 1054.96L101.901 1052.29z"/>
<text fill="#222222"  xml:space="preserve" font-size="11.1273" transform="translate(198.581, 785.545)" >MP</text>
<text fill="#ff0000"  xml:space="preserve" font-size="8.34545" transform="translate(193.532, 804.418)" >G</text>
<text fill="#222222"  xml:space="preserve" font-size="11.1273" transform="translate(242.329, 838.316)" >sg13_hv_pmos</text>
<text fill="#ff0000"  xml:space="preserve" font-size="8.34545" transform="translate(234.305, 833.841)" >D</text>
<text fill="#ff0000"  xml:space="preserve" font-size="8.34545" transform="translate(234.305, 786.821)" >S</text>
<text fill="#ff0000"  xml:space="preserve" font-size="8.34545" transform="translate(231.63, 804.418)" >B</text>
<text fill="#666600"  xml:space="preserve" font-size="11.1273" transform="translate(243.667, 824.33)" >m=1</text>
<text fill="#666600"  xml:space="preserve" font-size="11.1273" transform="translate(243.667, 814.968)" >ng=1</text>
<text fill="#666600"  xml:space="preserve" font-size="11.1273" transform="translate(243.667, 801.594)" >l=0.45u</text>
<text fill="#666600"  xml:space="preserve" font-size="11.1273" transform="translate(243.667, 789.558)" >w=3.9u</text>
<text fill="#222222"  xml:space="preserve" font-size="11.1273" transform="translate(197.581, 946.035)" >MN</text>
<text fill="#ff0000"  xml:space="preserve" font-size="8.34545" transform="translate(193.532, 964.907)" >G</text>
<text fill="#222222"  xml:space="preserve" font-size="11.1273" transform="translate(242.329, 998.805)" >sg13_hv_nmos</text>
<text fill="#ff0000"  xml:space="preserve" font-size="8.34545" transform="translate(234.305, 994.331)" >S</text>
<text fill="#ff0000"  xml:space="preserve" font-size="8.34545" transform="translate(234.305, 947.311)" >D</text>
<text fill="#ff0000"  xml:space="preserve" font-size="8.34545" transform="translate(231.63, 964.907)" >B</text>
<text fill="#666600"  xml:space="preserve" font-size="11.1273" transform="translate(243.667, 984.82)" >m=1</text>
<text fill="#666600"  xml:space="preserve" font-size="11.1273" transform="translate(243.667, 975.458)" >ng=1</text>
<text fill="#666600"  xml:space="preserve" font-size="11.1273" transform="translate(243.667, 962.084)" >l=0.45u</text>
<text fill="#666600"  xml:space="preserve" font-size="11.1273" transform="translate(243.667, 950.047)" >w=1.9u</text>
<text fill="#0099cc"  xml:space="preserve" font-size="18.36" transform="translate(50.7787, 895.093)" >a</text>
<text fill="#0099cc"  xml:space="preserve" font-size="18.36" transform="translate(402.819, 895.093)" >y</text>
<text fill="#0099cc"  xml:space="preserve" font-size="18.36" transform="translate(36.007, 728.586)" >vdda</text>
<text fill="#0099cc"  xml:space="preserve" font-size="18.36" transform="translate(51.007, 1060.26)" >vss</text>
<path class="l1" d="M231.63 968.029L231.63 1053.62"/>
<path class="l1" d="M188.833 887.784L188.833 968.029"/>
<path class="l1" d="M231.63 887.784L231.63 935.931"/>
<path class="l1" d="M81.8399 887.784L188.833 887.784"/>
<path class="l1" d="M231.63 887.784L381.42 887.784"/>
<path class="l1" d="M231.63 721.945L231.63 807.54"/>
<path class="l1" d="M103.238 721.945L231.63 721.945"/>
<path class="l1" d="M103.238 1053.62L231.63 1053.62"/>
<path class="l1" d="M188.833 807.54L188.833 887.784"/>
<path class="l1" d="M231.63 839.638L231.63 887.784"/>
<circle class="l1" cx="231.63" cy="887.784" r="3.95874"/>
<circle class="l1" cx="188.833" cy="887.784" r="3.95874"/>
<circle class="l1" cx="231.63" cy="887.784" r="3.95874"/>
<circle class="l1" cx="188.833" cy="887.784" r="3.95874"/>
<circle class="l1" cx="231.63" cy="887.784" r="3.95874"/>
<circle class="l1" cx="188.833" cy="887.784" r="3.95874"/>
<text fill="#222222"  xml:space="preserve" font-size="30.6" transform="translate(116.078, 567.842)" >g1_thv_inv - 3.3 V inverter (DAC switch drive)</text>
<text fill="#222222"  xml:space="preserve" font-size="16.6909" transform="translate(116.078, 596.94)" >G1 guardian, chip of record g1_chip_top_1414_r2.gds 9049e87b (r2 2026-09-25; geometry XOR-identical to r1 629d303a); block map: g1_padring/reports/signoff-1414-20260924</text>
<text fill="#222222"  xml:space="preserve" font-size="16.6909" transform="translate(116.078, 622.618)" >On-chip variant: chip of record (regenpair4 + NF4): soft g1_cmp M1/M2 24u/0.68u ng=4, hard g1_cmp_regenpair4 M3/M4 6u/0.26u; rppd bodies on vss as in the chip deck; layout/g1_trip_lvs.cdl 60a9ad6e + regenpair4/NF4 cell CDLs</text>
<text fill="#222222"  xml:space="preserve" font-size="16.6909" transform="translate(116.078, 648.296)" >Netlist-equivalent to the g1_thv_inv subcircuit in sim/qualification/joint586-softinputpair4-nf4-roomcal-s73133-20260924-r1/trip.spice sha256 f5f0a90a (chip deck)</text>
<text fill="#222222"  xml:space="preserve" font-size="13.9091" transform="translate(116.078, 671.449)" >Drawn 2026-09-25 by the block generator; device sizes (w, l, ng, m) are on each symbol. Proof: review/schematics-readability-20260925</text>
</svg>
